G04*
G04 #@! TF.GenerationSoftware,Altium Limited,Altium Designer,25.8.1 (18)*
G04*
G04 Layer_Color=8388736*
%FSLAX44Y44*%
%MOMM*%
G71*
G04*
G04 #@! TF.SameCoordinates,AE29A8EA-38D1-4C56-B93E-DA9E4F67AAC9*
G04*
G04*
G04 #@! TF.FilePolarity,Negative*
G04*
G01*
G75*
%ADD12R,0.6432X0.5532*%
%ADD13R,0.8632X0.4232*%
D12*
X285000Y6500D02*
D03*
Y73500D02*
D03*
X15000D02*
D03*
Y6500D02*
D03*
D13*
X293550Y64000D02*
D03*
Y60000D02*
D03*
Y56000D02*
D03*
Y52000D02*
D03*
Y48000D02*
D03*
Y44000D02*
D03*
Y40000D02*
D03*
Y36000D02*
D03*
Y32000D02*
D03*
Y28000D02*
D03*
Y24000D02*
D03*
Y20000D02*
D03*
Y16000D02*
D03*
X276450Y20000D02*
D03*
Y24000D02*
D03*
Y28000D02*
D03*
Y32000D02*
D03*
Y36000D02*
D03*
Y16000D02*
D03*
Y48000D02*
D03*
Y52000D02*
D03*
Y56000D02*
D03*
Y60000D02*
D03*
Y64000D02*
D03*
Y40000D02*
D03*
Y44000D02*
D03*
X6450D02*
D03*
Y40000D02*
D03*
Y64000D02*
D03*
Y60000D02*
D03*
Y56000D02*
D03*
Y52000D02*
D03*
Y48000D02*
D03*
Y16000D02*
D03*
Y36000D02*
D03*
Y32000D02*
D03*
Y28000D02*
D03*
Y24000D02*
D03*
Y20000D02*
D03*
X23550Y16000D02*
D03*
Y20000D02*
D03*
Y24000D02*
D03*
Y28000D02*
D03*
Y32000D02*
D03*
Y36000D02*
D03*
Y40000D02*
D03*
Y44000D02*
D03*
Y48000D02*
D03*
Y52000D02*
D03*
Y56000D02*
D03*
Y60000D02*
D03*
Y64000D02*
D03*
M02*
