G04*
G04 #@! TF.GenerationSoftware,Altium Limited,Altium Designer,25.2.1 (25)*
G04*
G04 Layer_Color=8421504*
%FSLAX44Y44*%
%MOMM*%
G71*
G04*
G04 #@! TF.SameCoordinates,354CD0E8-A94C-4C90-BA2C-1FD22ABA9F20*
G04*
G04*
G04 #@! TF.FilePolarity,Positive*
G04*
G01*
G75*
%ADD10R,0.6600X0.2200*%
D10*
X276450Y44000D02*
D03*
Y40000D02*
D03*
Y64000D02*
D03*
Y60000D02*
D03*
Y56000D02*
D03*
Y52000D02*
D03*
Y48000D02*
D03*
Y16000D02*
D03*
Y36000D02*
D03*
Y32000D02*
D03*
Y28000D02*
D03*
Y24000D02*
D03*
Y20000D02*
D03*
X293550Y16000D02*
D03*
Y20000D02*
D03*
Y24000D02*
D03*
Y28000D02*
D03*
Y32000D02*
D03*
Y36000D02*
D03*
Y40000D02*
D03*
Y44000D02*
D03*
Y48000D02*
D03*
Y52000D02*
D03*
Y56000D02*
D03*
Y60000D02*
D03*
Y64000D02*
D03*
X6450Y44000D02*
D03*
Y40000D02*
D03*
Y64000D02*
D03*
Y60000D02*
D03*
Y56000D02*
D03*
Y52000D02*
D03*
Y48000D02*
D03*
Y16000D02*
D03*
Y36000D02*
D03*
Y32000D02*
D03*
Y28000D02*
D03*
Y24000D02*
D03*
Y20000D02*
D03*
X23550Y16000D02*
D03*
Y20000D02*
D03*
Y24000D02*
D03*
Y28000D02*
D03*
Y32000D02*
D03*
Y36000D02*
D03*
Y40000D02*
D03*
Y44000D02*
D03*
Y48000D02*
D03*
Y52000D02*
D03*
Y56000D02*
D03*
Y60000D02*
D03*
Y64000D02*
D03*
M02*
