G04*
G04 #@! TF.GenerationSoftware,Altium Limited,Altium Designer,25.2.1 (25)*
G04*
G04 Layer_Color=65535*
%FSLAX44Y44*%
%MOMM*%
G71*
G04*
G04 #@! TF.SameCoordinates,354CD0E8-A94C-4C90-BA2C-1FD22ABA9F20*
G04*
G04*
G04 #@! TF.FilePolarity,Positive*
G04*
G01*
G75*
G36*
X54461Y35162D02*
X52806D01*
X50000Y42117D01*
X51931D01*
X53243Y38568D01*
X53624Y37381D01*
Y37387D01*
X53630Y37399D01*
X53637Y37424D01*
X53649Y37456D01*
X53674Y37531D01*
X53705Y37624D01*
X53737Y37724D01*
X53768Y37824D01*
X53793Y37912D01*
X53805Y37949D01*
X53811Y37980D01*
Y37987D01*
X53818Y37993D01*
X53830Y38031D01*
X53849Y38087D01*
X53874Y38162D01*
X53899Y38255D01*
X53937Y38355D01*
X53974Y38455D01*
X54012Y38568D01*
X55336Y42117D01*
X57229D01*
X54461Y35162D01*
D02*
G37*
G36*
X67664D02*
X65827D01*
Y36999D01*
X67664D01*
Y35162D01*
D02*
G37*
G36*
X62678D02*
X60835D01*
Y42098D01*
X60822Y42086D01*
X60791Y42055D01*
X60735Y42011D01*
X60654Y41942D01*
X60560Y41867D01*
X60441Y41773D01*
X60310Y41680D01*
X60160Y41573D01*
X59991Y41461D01*
X59810Y41342D01*
X59616Y41230D01*
X59404Y41111D01*
X59185Y40999D01*
X58954Y40892D01*
X58710Y40792D01*
X58454Y40705D01*
Y42373D01*
X58460D01*
X58485Y42386D01*
X58529Y42398D01*
X58579Y42423D01*
X58648Y42448D01*
X58729Y42486D01*
X58823Y42523D01*
X58923Y42573D01*
X59035Y42629D01*
X59154Y42698D01*
X59285Y42767D01*
X59423Y42848D01*
X59566Y42942D01*
X59710Y43042D01*
X59866Y43148D01*
X60022Y43267D01*
X60035Y43273D01*
X60060Y43298D01*
X60104Y43335D01*
X60160Y43385D01*
X60229Y43448D01*
X60304Y43523D01*
X60391Y43610D01*
X60485Y43710D01*
X60578Y43816D01*
X60679Y43935D01*
X60772Y44060D01*
X60866Y44198D01*
X60960Y44335D01*
X61041Y44485D01*
X61122Y44641D01*
X61185Y44804D01*
X62678D01*
Y35162D01*
D02*
G37*
G36*
X72369Y44798D02*
X72407D01*
X72507Y44791D01*
X72625Y44773D01*
X72757Y44754D01*
X72907Y44722D01*
X73069Y44679D01*
X73244Y44629D01*
X73419Y44560D01*
X73600Y44479D01*
X73781Y44385D01*
X73963Y44273D01*
X74138Y44141D01*
X74300Y43985D01*
X74456Y43810D01*
Y43804D01*
X74469Y43798D01*
X74481Y43779D01*
X74494Y43754D01*
X74519Y43723D01*
X74544Y43685D01*
X74569Y43635D01*
X74600Y43585D01*
X74637Y43523D01*
X74675Y43454D01*
X74712Y43379D01*
X74750Y43292D01*
X74794Y43198D01*
X74837Y43104D01*
X74881Y42992D01*
X74925Y42879D01*
X74969Y42754D01*
X75012Y42623D01*
X75056Y42486D01*
X75100Y42336D01*
X75137Y42179D01*
X75175Y42017D01*
X75212Y41842D01*
X75250Y41661D01*
X75281Y41473D01*
X75306Y41273D01*
X75331Y41067D01*
X75356Y40848D01*
X75368Y40624D01*
X75381Y40392D01*
X75394Y40149D01*
Y39899D01*
Y39892D01*
Y39867D01*
Y39830D01*
Y39780D01*
X75387Y39718D01*
Y39636D01*
X75381Y39549D01*
Y39455D01*
X75375Y39349D01*
X75362Y39230D01*
X75356Y39105D01*
X75343Y38974D01*
X75331Y38837D01*
X75312Y38687D01*
X75275Y38387D01*
X75225Y38068D01*
X75162Y37743D01*
X75087Y37418D01*
X74994Y37093D01*
X74887Y36781D01*
X74762Y36493D01*
X74694Y36350D01*
X74619Y36219D01*
X74538Y36100D01*
X74450Y35981D01*
X74444Y35968D01*
X74412Y35937D01*
X74369Y35894D01*
X74306Y35831D01*
X74225Y35756D01*
X74131Y35669D01*
X74019Y35581D01*
X73888Y35494D01*
X73738Y35400D01*
X73575Y35312D01*
X73400Y35225D01*
X73200Y35156D01*
X72994Y35094D01*
X72769Y35044D01*
X72532Y35013D01*
X72276Y35000D01*
X72213D01*
X72182Y35006D01*
X72138D01*
X72044Y35019D01*
X71926Y35031D01*
X71788Y35056D01*
X71632Y35087D01*
X71469Y35138D01*
X71294Y35194D01*
X71107Y35262D01*
X70920Y35350D01*
X70732Y35456D01*
X70545Y35575D01*
X70357Y35719D01*
X70182Y35887D01*
X70095Y35975D01*
X70014Y36075D01*
Y36081D01*
X70001Y36087D01*
X69995Y36106D01*
X69976Y36125D01*
X69957Y36156D01*
X69932Y36193D01*
X69907Y36237D01*
X69882Y36287D01*
X69851Y36343D01*
X69814Y36406D01*
X69782Y36481D01*
X69745Y36562D01*
X69707Y36650D01*
X69664Y36743D01*
X69626Y36850D01*
X69589Y36956D01*
X69545Y37081D01*
X69507Y37206D01*
X69464Y37343D01*
X69426Y37487D01*
X69389Y37637D01*
X69358Y37799D01*
X69320Y37968D01*
X69289Y38149D01*
X69264Y38337D01*
X69239Y38537D01*
X69214Y38743D01*
X69195Y38955D01*
X69176Y39186D01*
X69170Y39418D01*
X69158Y39661D01*
Y39918D01*
Y39924D01*
Y39949D01*
Y39986D01*
Y40036D01*
X69164Y40099D01*
Y40174D01*
X69170Y40261D01*
Y40361D01*
X69176Y40467D01*
X69189Y40586D01*
X69195Y40705D01*
X69208Y40836D01*
X69220Y40980D01*
X69239Y41123D01*
X69276Y41423D01*
X69326Y41742D01*
X69389Y42061D01*
X69464Y42386D01*
X69557Y42711D01*
X69664Y43017D01*
X69789Y43310D01*
X69857Y43448D01*
X69932Y43585D01*
X70014Y43704D01*
X70101Y43823D01*
X70107Y43835D01*
X70139Y43867D01*
X70182Y43917D01*
X70245Y43979D01*
X70326Y44048D01*
X70420Y44135D01*
X70539Y44223D01*
X70663Y44316D01*
X70813Y44404D01*
X70976Y44491D01*
X71157Y44579D01*
X71351Y44654D01*
X71557Y44716D01*
X71782Y44760D01*
X72019Y44791D01*
X72276Y44804D01*
X72338D01*
X72369Y44798D01*
D02*
G37*
G36*
X87547Y60722D02*
X85710D01*
Y62428D01*
X87547D01*
Y60722D01*
D02*
G37*
G36*
X71151D02*
X69314D01*
Y62428D01*
X71151D01*
Y60722D01*
D02*
G37*
G36*
X123544Y62584D02*
X123594D01*
X123650Y62578D01*
X123719Y62572D01*
X123787Y62566D01*
X123869Y62559D01*
X124044Y62534D01*
X124231Y62503D01*
X124443Y62459D01*
X124668Y62403D01*
X124900Y62341D01*
X125137Y62253D01*
X125374Y62153D01*
X125612Y62035D01*
X125849Y61897D01*
X126074Y61734D01*
X126287Y61553D01*
X126293Y61547D01*
X126318Y61522D01*
X126349Y61491D01*
X126393Y61441D01*
X126449Y61372D01*
X126512Y61297D01*
X126580Y61203D01*
X126655Y61097D01*
X126737Y60978D01*
X126818Y60847D01*
X126899Y60704D01*
X126980Y60541D01*
X127055Y60372D01*
X127130Y60185D01*
X127205Y59991D01*
X127268Y59779D01*
X125350Y59323D01*
Y59329D01*
X125343Y59354D01*
X125331Y59398D01*
X125312Y59448D01*
X125293Y59510D01*
X125268Y59585D01*
X125237Y59666D01*
X125199Y59754D01*
X125156Y59847D01*
X125099Y59941D01*
X125043Y60041D01*
X124981Y60135D01*
X124906Y60235D01*
X124825Y60329D01*
X124737Y60422D01*
X124637Y60504D01*
X124631Y60510D01*
X124612Y60522D01*
X124581Y60541D01*
X124543Y60572D01*
X124487Y60604D01*
X124425Y60641D01*
X124356Y60679D01*
X124275Y60722D01*
X124181Y60760D01*
X124081Y60797D01*
X123975Y60835D01*
X123856Y60866D01*
X123731Y60897D01*
X123606Y60916D01*
X123469Y60929D01*
X123325Y60935D01*
X123275D01*
X123225Y60929D01*
X123150Y60922D01*
X123056Y60910D01*
X122950Y60897D01*
X122838Y60872D01*
X122706Y60841D01*
X122575Y60797D01*
X122431Y60747D01*
X122288Y60685D01*
X122144Y60610D01*
X121994Y60522D01*
X121857Y60422D01*
X121719Y60304D01*
X121588Y60166D01*
X121582Y60160D01*
X121557Y60129D01*
X121525Y60085D01*
X121482Y60023D01*
X121432Y59935D01*
X121376Y59835D01*
X121319Y59710D01*
X121257Y59573D01*
X121194Y59410D01*
X121138Y59223D01*
X121082Y59023D01*
X121032Y58798D01*
X120988Y58554D01*
X120957Y58285D01*
X120932Y57998D01*
X120926Y57686D01*
Y57679D01*
Y57667D01*
Y57642D01*
Y57604D01*
Y57561D01*
X120932Y57511D01*
Y57454D01*
X120938Y57386D01*
Y57317D01*
X120944Y57242D01*
X120963Y57067D01*
X120982Y56880D01*
X121007Y56680D01*
X121044Y56467D01*
X121088Y56248D01*
X121138Y56030D01*
X121201Y55817D01*
X121276Y55611D01*
X121363Y55424D01*
X121469Y55242D01*
X121582Y55086D01*
X121588Y55080D01*
X121613Y55055D01*
X121650Y55017D01*
X121700Y54967D01*
X121769Y54911D01*
X121844Y54843D01*
X121938Y54774D01*
X122044Y54705D01*
X122156Y54630D01*
X122288Y54561D01*
X122425Y54499D01*
X122581Y54436D01*
X122738Y54386D01*
X122913Y54349D01*
X123094Y54324D01*
X123287Y54318D01*
X123319D01*
X123363Y54324D01*
X123419D01*
X123481Y54330D01*
X123562Y54343D01*
X123650Y54361D01*
X123744Y54380D01*
X123844Y54405D01*
X123950Y54436D01*
X124056Y54474D01*
X124169Y54524D01*
X124281Y54580D01*
X124394Y54643D01*
X124506Y54718D01*
X124612Y54805D01*
X124618Y54811D01*
X124637Y54830D01*
X124668Y54855D01*
X124706Y54899D01*
X124750Y54955D01*
X124806Y55017D01*
X124862Y55093D01*
X124925Y55186D01*
X124987Y55286D01*
X125056Y55399D01*
X125125Y55530D01*
X125187Y55667D01*
X125256Y55817D01*
X125312Y55986D01*
X125368Y56161D01*
X125418Y56355D01*
X127299Y55755D01*
Y55749D01*
X127293Y55736D01*
X127287Y55717D01*
X127280Y55686D01*
X127268Y55649D01*
X127255Y55605D01*
X127236Y55555D01*
X127218Y55499D01*
X127168Y55367D01*
X127105Y55217D01*
X127037Y55055D01*
X126955Y54874D01*
X126862Y54686D01*
X126755Y54499D01*
X126637Y54305D01*
X126505Y54111D01*
X126362Y53924D01*
X126206Y53743D01*
X126037Y53574D01*
X125856Y53424D01*
X125843Y53418D01*
X125812Y53393D01*
X125756Y53355D01*
X125674Y53306D01*
X125574Y53249D01*
X125456Y53180D01*
X125318Y53112D01*
X125162Y53043D01*
X124987Y52974D01*
X124793Y52906D01*
X124581Y52837D01*
X124356Y52781D01*
X124112Y52731D01*
X123856Y52693D01*
X123587Y52668D01*
X123306Y52662D01*
X123219D01*
X123175Y52668D01*
X123119D01*
X123056Y52674D01*
X122988Y52681D01*
X122913Y52693D01*
X122825Y52699D01*
X122731Y52718D01*
X122638Y52731D01*
X122425Y52774D01*
X122194Y52824D01*
X121950Y52893D01*
X121700Y52980D01*
X121438Y53087D01*
X121169Y53212D01*
X120907Y53362D01*
X120776Y53449D01*
X120651Y53537D01*
X120519Y53637D01*
X120394Y53737D01*
X120276Y53849D01*
X120157Y53968D01*
X120151Y53974D01*
X120145Y53980D01*
X120126Y53999D01*
X120107Y54030D01*
X120076Y54061D01*
X120045Y54105D01*
X120007Y54149D01*
X119963Y54205D01*
X119920Y54268D01*
X119870Y54343D01*
X119820Y54418D01*
X119770Y54499D01*
X119713Y54593D01*
X119657Y54686D01*
X119601Y54792D01*
X119545Y54905D01*
X119482Y55024D01*
X119426Y55149D01*
X119370Y55280D01*
X119313Y55417D01*
X119263Y55561D01*
X119213Y55711D01*
X119164Y55867D01*
X119120Y56030D01*
X119039Y56367D01*
X118976Y56736D01*
X118957Y56929D01*
X118939Y57130D01*
X118932Y57329D01*
X118926Y57542D01*
Y57548D01*
Y57567D01*
Y57604D01*
Y57648D01*
X118932Y57704D01*
Y57773D01*
X118939Y57848D01*
X118945Y57936D01*
X118951Y58035D01*
X118964Y58142D01*
X118976Y58254D01*
X118989Y58373D01*
X119007Y58498D01*
X119032Y58629D01*
X119082Y58910D01*
X119145Y59204D01*
X119226Y59504D01*
X119326Y59816D01*
X119451Y60122D01*
X119588Y60429D01*
X119670Y60579D01*
X119757Y60729D01*
X119845Y60866D01*
X119945Y61003D01*
X120051Y61141D01*
X120163Y61266D01*
X120169Y61272D01*
X120176Y61278D01*
X120195Y61297D01*
X120219Y61322D01*
X120251Y61353D01*
X120295Y61391D01*
X120338Y61428D01*
X120388Y61472D01*
X120451Y61522D01*
X120513Y61572D01*
X120588Y61628D01*
X120663Y61684D01*
X120751Y61747D01*
X120838Y61803D01*
X121038Y61928D01*
X121263Y62053D01*
X121507Y62172D01*
X121775Y62284D01*
X122063Y62384D01*
X122375Y62466D01*
X122706Y62534D01*
X122881Y62559D01*
X123056Y62578D01*
X123237Y62584D01*
X123425Y62591D01*
X123500D01*
X123544Y62584D01*
D02*
G37*
G36*
X113852Y62584D02*
X113902D01*
X113959Y62578D01*
X114027Y62572D01*
X114096Y62566D01*
X114177Y62559D01*
X114352Y62534D01*
X114540Y62503D01*
X114752Y62459D01*
X114977Y62403D01*
X115208Y62341D01*
X115446Y62253D01*
X115683Y62153D01*
X115921Y62034D01*
X116158Y61897D01*
X116383Y61734D01*
X116595Y61553D01*
X116602Y61547D01*
X116627Y61522D01*
X116658Y61491D01*
X116702Y61441D01*
X116758Y61372D01*
X116820Y61297D01*
X116889Y61203D01*
X116964Y61097D01*
X117045Y60978D01*
X117127Y60847D01*
X117208Y60704D01*
X117289Y60541D01*
X117364Y60372D01*
X117439Y60185D01*
X117514Y59991D01*
X117576Y59779D01*
X115658Y59323D01*
Y59329D01*
X115652Y59354D01*
X115639Y59398D01*
X115621Y59448D01*
X115602Y59510D01*
X115577Y59585D01*
X115546Y59666D01*
X115508Y59754D01*
X115464Y59847D01*
X115408Y59941D01*
X115352Y60041D01*
X115289Y60135D01*
X115215Y60235D01*
X115133Y60329D01*
X115046Y60422D01*
X114946Y60504D01*
X114940Y60510D01*
X114921Y60522D01*
X114890Y60541D01*
X114852Y60572D01*
X114796Y60604D01*
X114733Y60641D01*
X114665Y60679D01*
X114584Y60722D01*
X114490Y60760D01*
X114390Y60797D01*
X114284Y60835D01*
X114165Y60866D01*
X114040Y60897D01*
X113915Y60916D01*
X113777Y60929D01*
X113634Y60935D01*
X113584D01*
X113534Y60929D01*
X113459Y60922D01*
X113365Y60910D01*
X113259Y60897D01*
X113146Y60872D01*
X113015Y60841D01*
X112884Y60797D01*
X112740Y60747D01*
X112597Y60685D01*
X112453Y60610D01*
X112303Y60522D01*
X112165Y60422D01*
X112028Y60304D01*
X111897Y60166D01*
X111890Y60160D01*
X111865Y60129D01*
X111834Y60085D01*
X111790Y60023D01*
X111740Y59935D01*
X111684Y59835D01*
X111628Y59710D01*
X111566Y59573D01*
X111503Y59410D01*
X111447Y59223D01*
X111390Y59023D01*
X111341Y58798D01*
X111297Y58554D01*
X111266Y58285D01*
X111241Y57998D01*
X111234Y57686D01*
Y57679D01*
Y57667D01*
Y57642D01*
Y57604D01*
Y57561D01*
X111241Y57511D01*
Y57454D01*
X111247Y57386D01*
Y57317D01*
X111253Y57242D01*
X111272Y57067D01*
X111291Y56880D01*
X111316Y56680D01*
X111353Y56467D01*
X111397Y56248D01*
X111447Y56030D01*
X111509Y55817D01*
X111584Y55611D01*
X111672Y55424D01*
X111778Y55242D01*
X111890Y55086D01*
X111897Y55080D01*
X111922Y55055D01*
X111959Y55017D01*
X112009Y54967D01*
X112078Y54911D01*
X112153Y54843D01*
X112247Y54774D01*
X112353Y54705D01*
X112465Y54630D01*
X112597Y54561D01*
X112734Y54499D01*
X112890Y54436D01*
X113046Y54386D01*
X113221Y54349D01*
X113403Y54324D01*
X113596Y54318D01*
X113628D01*
X113671Y54324D01*
X113727D01*
X113790Y54330D01*
X113871Y54343D01*
X113959Y54361D01*
X114052Y54380D01*
X114152Y54405D01*
X114258Y54436D01*
X114365Y54474D01*
X114477Y54524D01*
X114590Y54580D01*
X114702Y54643D01*
X114815Y54718D01*
X114921Y54805D01*
X114927Y54811D01*
X114946Y54830D01*
X114977Y54855D01*
X115015Y54899D01*
X115058Y54955D01*
X115115Y55017D01*
X115171Y55093D01*
X115233Y55186D01*
X115296Y55286D01*
X115365Y55399D01*
X115433Y55530D01*
X115496Y55667D01*
X115564Y55817D01*
X115621Y55986D01*
X115677Y56161D01*
X115727Y56355D01*
X117608Y55755D01*
Y55749D01*
X117601Y55736D01*
X117595Y55717D01*
X117589Y55686D01*
X117576Y55649D01*
X117564Y55605D01*
X117545Y55555D01*
X117527Y55499D01*
X117477Y55367D01*
X117414Y55217D01*
X117345Y55055D01*
X117264Y54874D01*
X117170Y54686D01*
X117064Y54499D01*
X116945Y54305D01*
X116814Y54111D01*
X116670Y53924D01*
X116514Y53743D01*
X116346Y53574D01*
X116164Y53424D01*
X116152Y53418D01*
X116121Y53393D01*
X116064Y53355D01*
X115983Y53305D01*
X115883Y53249D01*
X115764Y53180D01*
X115627Y53112D01*
X115471Y53043D01*
X115296Y52974D01*
X115102Y52906D01*
X114890Y52837D01*
X114665Y52781D01*
X114421Y52731D01*
X114165Y52693D01*
X113896Y52668D01*
X113615Y52662D01*
X113527D01*
X113484Y52668D01*
X113427D01*
X113365Y52674D01*
X113296Y52681D01*
X113221Y52693D01*
X113134Y52699D01*
X113040Y52718D01*
X112946Y52731D01*
X112734Y52774D01*
X112503Y52824D01*
X112259Y52893D01*
X112009Y52980D01*
X111747Y53087D01*
X111478Y53212D01*
X111216Y53362D01*
X111084Y53449D01*
X110959Y53537D01*
X110828Y53637D01*
X110703Y53737D01*
X110584Y53849D01*
X110466Y53968D01*
X110459Y53974D01*
X110453Y53980D01*
X110435Y53999D01*
X110416Y54030D01*
X110385Y54061D01*
X110353Y54105D01*
X110316Y54149D01*
X110272Y54205D01*
X110228Y54268D01*
X110178Y54343D01*
X110128Y54418D01*
X110078Y54499D01*
X110022Y54593D01*
X109966Y54686D01*
X109910Y54792D01*
X109853Y54905D01*
X109791Y55024D01*
X109735Y55149D01*
X109678Y55280D01*
X109622Y55417D01*
X109572Y55561D01*
X109522Y55711D01*
X109472Y55867D01*
X109429Y56030D01*
X109347Y56367D01*
X109285Y56736D01*
X109266Y56929D01*
X109247Y57130D01*
X109241Y57329D01*
X109235Y57542D01*
Y57548D01*
Y57567D01*
Y57604D01*
Y57648D01*
X109241Y57704D01*
Y57773D01*
X109247Y57848D01*
X109254Y57936D01*
X109260Y58035D01*
X109272Y58142D01*
X109285Y58254D01*
X109297Y58373D01*
X109316Y58498D01*
X109341Y58629D01*
X109391Y58910D01*
X109453Y59204D01*
X109535Y59504D01*
X109635Y59816D01*
X109760Y60122D01*
X109897Y60429D01*
X109978Y60579D01*
X110066Y60729D01*
X110153Y60866D01*
X110253Y61003D01*
X110359Y61141D01*
X110472Y61266D01*
X110478Y61272D01*
X110485Y61278D01*
X110503Y61297D01*
X110528Y61322D01*
X110560Y61353D01*
X110603Y61391D01*
X110647Y61428D01*
X110697Y61472D01*
X110759Y61522D01*
X110822Y61572D01*
X110897Y61628D01*
X110972Y61684D01*
X111059Y61747D01*
X111147Y61803D01*
X111347Y61928D01*
X111572Y62053D01*
X111815Y62172D01*
X112084Y62284D01*
X112372Y62384D01*
X112684Y62466D01*
X113015Y62534D01*
X113190Y62559D01*
X113365Y62578D01*
X113546Y62584D01*
X113734Y62591D01*
X113809D01*
X113852Y62584D01*
D02*
G37*
G36*
X77137Y59935D02*
X77187D01*
X77249Y59929D01*
X77324Y59922D01*
X77399Y59916D01*
X77574Y59885D01*
X77755Y59847D01*
X77949Y59791D01*
X78143Y59716D01*
X78149D01*
X78168Y59704D01*
X78193Y59691D01*
X78224Y59679D01*
X78268Y59654D01*
X78318Y59629D01*
X78430Y59566D01*
X78549Y59485D01*
X78680Y59385D01*
X78799Y59279D01*
X78905Y59154D01*
X78911Y59148D01*
X78918Y59141D01*
X78930Y59123D01*
X78949Y59098D01*
X78968Y59060D01*
X78993Y59023D01*
X79049Y58929D01*
X79111Y58816D01*
X79167Y58685D01*
X79224Y58542D01*
X79268Y58385D01*
Y58379D01*
X79274Y58367D01*
X79280Y58342D01*
X79286Y58304D01*
X79292Y58260D01*
X79299Y58204D01*
X79311Y58142D01*
X79324Y58067D01*
X79330Y57986D01*
X79342Y57892D01*
X79349Y57792D01*
X79355Y57679D01*
X79361Y57561D01*
X79367Y57436D01*
X79374Y57298D01*
Y57148D01*
Y52824D01*
X77530D01*
Y56373D01*
Y56380D01*
Y56386D01*
Y56423D01*
Y56480D01*
Y56555D01*
X77524Y56642D01*
Y56748D01*
X77518Y56861D01*
Y56979D01*
X77499Y57223D01*
X77493Y57348D01*
X77481Y57461D01*
X77468Y57573D01*
X77449Y57673D01*
X77431Y57761D01*
X77412Y57829D01*
Y57835D01*
X77406Y57842D01*
X77399Y57860D01*
X77387Y57885D01*
X77362Y57942D01*
X77318Y58017D01*
X77268Y58098D01*
X77199Y58185D01*
X77118Y58267D01*
X77024Y58342D01*
X77012Y58348D01*
X76981Y58373D01*
X76924Y58404D01*
X76849Y58435D01*
X76756Y58473D01*
X76649Y58498D01*
X76525Y58523D01*
X76393Y58529D01*
X76350D01*
X76312Y58523D01*
X76268D01*
X76218Y58517D01*
X76106Y58498D01*
X75975Y58467D01*
X75825Y58417D01*
X75675Y58354D01*
X75531Y58267D01*
X75525D01*
X75512Y58254D01*
X75493Y58242D01*
X75469Y58217D01*
X75406Y58160D01*
X75325Y58079D01*
X75237Y57979D01*
X75150Y57860D01*
X75069Y57729D01*
X75006Y57573D01*
Y57567D01*
X75000Y57554D01*
X74994Y57523D01*
X74987Y57486D01*
X74975Y57436D01*
X74962Y57373D01*
X74950Y57298D01*
X74937Y57211D01*
X74925Y57111D01*
X74912Y56992D01*
X74900Y56861D01*
X74887Y56717D01*
X74881Y56555D01*
X74875Y56380D01*
X74869Y56186D01*
Y55974D01*
Y52824D01*
X73032D01*
Y59779D01*
X74737D01*
Y58766D01*
X74750Y58773D01*
X74781Y58810D01*
X74831Y58867D01*
X74900Y58948D01*
X74994Y59035D01*
X75100Y59135D01*
X75225Y59241D01*
X75368Y59354D01*
X75525Y59460D01*
X75700Y59566D01*
X75887Y59666D01*
X76087Y59760D01*
X76306Y59835D01*
X76537Y59891D01*
X76774Y59929D01*
X76906Y59935D01*
X77031Y59941D01*
X77093D01*
X77137Y59935D01*
D02*
G37*
G36*
X140377Y52824D02*
X138440D01*
Y57023D01*
X134635D01*
Y52824D01*
X132698D01*
Y62428D01*
X134635D01*
Y58648D01*
X138440D01*
Y62428D01*
X140377D01*
Y52824D01*
D02*
G37*
G36*
X153336Y59935D02*
X153455Y59929D01*
X153592Y59916D01*
X153742Y59904D01*
X153905Y59885D01*
X154073Y59860D01*
X154248Y59829D01*
X154423Y59791D01*
X154598Y59741D01*
X154773Y59691D01*
X154936Y59629D01*
X155086Y59554D01*
X155223Y59473D01*
X155229Y59466D01*
X155254Y59454D01*
X155292Y59423D01*
X155336Y59385D01*
X155392Y59335D01*
X155461Y59279D01*
X155529Y59210D01*
X155604Y59129D01*
X155685Y59035D01*
X155767Y58935D01*
X155848Y58823D01*
X155923Y58698D01*
X155998Y58567D01*
X156067Y58417D01*
X156129Y58267D01*
X156185Y58098D01*
X154448Y57773D01*
Y57779D01*
X154442Y57792D01*
X154436Y57811D01*
X154423Y57842D01*
X154398Y57910D01*
X154354Y58004D01*
X154298Y58104D01*
X154223Y58210D01*
X154130Y58310D01*
X154023Y58398D01*
X154017D01*
X154011Y58410D01*
X153992Y58417D01*
X153967Y58435D01*
X153936Y58448D01*
X153892Y58467D01*
X153848Y58485D01*
X153798Y58510D01*
X153736Y58529D01*
X153667Y58548D01*
X153598Y58567D01*
X153517Y58585D01*
X153430Y58598D01*
X153342Y58610D01*
X153242Y58617D01*
X153017D01*
X152955Y58610D01*
X152886Y58604D01*
X152811Y58598D01*
X152730Y58592D01*
X152561Y58567D01*
X152386Y58529D01*
X152305Y58504D01*
X152230Y58479D01*
X152155Y58448D01*
X152093Y58410D01*
X152086Y58404D01*
X152061Y58385D01*
X152030Y58354D01*
X151993Y58310D01*
X151949Y58254D01*
X151918Y58192D01*
X151893Y58117D01*
X151886Y58035D01*
Y58029D01*
Y58004D01*
X151899Y57967D01*
X151911Y57923D01*
X151930Y57867D01*
X151961Y57817D01*
X152005Y57761D01*
X152068Y57704D01*
X152074D01*
X152080Y57698D01*
X152099Y57686D01*
X152130Y57673D01*
X152168Y57654D01*
X152224Y57629D01*
X152293Y57604D01*
X152374Y57573D01*
X152480Y57536D01*
X152599Y57498D01*
X152736Y57454D01*
X152899Y57411D01*
X153080Y57361D01*
X153186Y57329D01*
X153292Y57304D01*
X153405Y57279D01*
X153524Y57248D01*
X153655Y57217D01*
X153786Y57186D01*
X153792D01*
X153805Y57179D01*
X153823D01*
X153848Y57173D01*
X153886Y57161D01*
X153923Y57154D01*
X154023Y57130D01*
X154148Y57092D01*
X154286Y57055D01*
X154436Y57011D01*
X154598Y56961D01*
X154767Y56905D01*
X154936Y56842D01*
X155111Y56773D01*
X155273Y56698D01*
X155435Y56623D01*
X155585Y56542D01*
X155723Y56455D01*
X155842Y56367D01*
X155848Y56361D01*
X155867Y56342D01*
X155898Y56317D01*
X155929Y56280D01*
X155973Y56224D01*
X156023Y56167D01*
X156073Y56092D01*
X156129Y56011D01*
X156185Y55917D01*
X156235Y55817D01*
X156285Y55705D01*
X156329Y55580D01*
X156367Y55449D01*
X156391Y55311D01*
X156410Y55161D01*
X156417Y54999D01*
Y54986D01*
Y54955D01*
X156410Y54905D01*
X156404Y54836D01*
X156391Y54755D01*
X156373Y54661D01*
X156348Y54555D01*
X156316Y54436D01*
X156273Y54311D01*
X156223Y54180D01*
X156154Y54043D01*
X156079Y53905D01*
X155985Y53762D01*
X155879Y53624D01*
X155760Y53487D01*
X155617Y53355D01*
X155611Y53349D01*
X155579Y53324D01*
X155535Y53293D01*
X155467Y53249D01*
X155386Y53199D01*
X155279Y53137D01*
X155161Y53074D01*
X155023Y53012D01*
X154867Y52949D01*
X154686Y52887D01*
X154492Y52831D01*
X154286Y52774D01*
X154055Y52731D01*
X153805Y52699D01*
X153536Y52674D01*
X153255Y52668D01*
X153161D01*
X153117Y52674D01*
X153017D01*
X152899Y52687D01*
X152761Y52699D01*
X152605Y52718D01*
X152436Y52743D01*
X152261Y52768D01*
X152080Y52806D01*
X151893Y52856D01*
X151705Y52912D01*
X151518Y52974D01*
X151337Y53056D01*
X151162Y53143D01*
X150999Y53243D01*
X150993Y53249D01*
X150962Y53268D01*
X150924Y53306D01*
X150868Y53349D01*
X150799Y53405D01*
X150724Y53474D01*
X150643Y53562D01*
X150555Y53655D01*
X150462Y53762D01*
X150374Y53874D01*
X150281Y54005D01*
X150193Y54143D01*
X150112Y54293D01*
X150037Y54455D01*
X149974Y54624D01*
X149918Y54805D01*
X151768Y55086D01*
Y55080D01*
X151774Y55061D01*
X151780Y55036D01*
X151793Y54999D01*
X151805Y54955D01*
X151824Y54899D01*
X151874Y54780D01*
X151936Y54649D01*
X152018Y54511D01*
X152118Y54386D01*
X152243Y54268D01*
X152249D01*
X152261Y54255D01*
X152280Y54243D01*
X152311Y54224D01*
X152349Y54205D01*
X152393Y54180D01*
X152443Y54155D01*
X152505Y54130D01*
X152574Y54105D01*
X152649Y54080D01*
X152730Y54055D01*
X152824Y54036D01*
X152917Y54018D01*
X153024Y54005D01*
X153136Y53999D01*
X153255Y53993D01*
X153323D01*
X153373Y53999D01*
X153430D01*
X153498Y54005D01*
X153574Y54018D01*
X153655Y54024D01*
X153830Y54055D01*
X154011Y54105D01*
X154180Y54168D01*
X154261Y54212D01*
X154330Y54255D01*
X154342Y54261D01*
X154367Y54286D01*
X154404Y54330D01*
X154454Y54386D01*
X154498Y54461D01*
X154536Y54543D01*
X154561Y54643D01*
X154573Y54749D01*
Y54755D01*
Y54786D01*
X154567Y54824D01*
X154555Y54868D01*
X154542Y54924D01*
X154517Y54980D01*
X154486Y55036D01*
X154442Y55093D01*
X154436Y55099D01*
X154411Y55118D01*
X154373Y55142D01*
X154311Y55174D01*
X154230Y55211D01*
X154180Y55230D01*
X154123Y55249D01*
X154061Y55274D01*
X153986Y55292D01*
X153911Y55317D01*
X153823Y55336D01*
X153817D01*
X153798Y55342D01*
X153767Y55349D01*
X153730Y55361D01*
X153673Y55367D01*
X153611Y55386D01*
X153542Y55399D01*
X153467Y55417D01*
X153380Y55442D01*
X153286Y55461D01*
X153086Y55511D01*
X152867Y55574D01*
X152636Y55636D01*
X152393Y55699D01*
X152155Y55774D01*
X151918Y55849D01*
X151693Y55924D01*
X151480Y56005D01*
X151380Y56042D01*
X151293Y56080D01*
X151205Y56117D01*
X151130Y56161D01*
X151062Y56199D01*
X150999Y56236D01*
X150993Y56242D01*
X150962Y56261D01*
X150924Y56292D01*
X150868Y56342D01*
X150805Y56398D01*
X150737Y56467D01*
X150662Y56548D01*
X150587Y56642D01*
X150512Y56748D01*
X150437Y56867D01*
X150368Y56992D01*
X150306Y57136D01*
X150249Y57286D01*
X150212Y57448D01*
X150187Y57623D01*
X150174Y57804D01*
Y57817D01*
Y57842D01*
X150181Y57892D01*
X150187Y57954D01*
X150199Y58029D01*
X150212Y58123D01*
X150237Y58223D01*
X150262Y58329D01*
X150299Y58448D01*
X150349Y58573D01*
X150406Y58698D01*
X150474Y58823D01*
X150555Y58954D01*
X150649Y59079D01*
X150762Y59204D01*
X150887Y59323D01*
X150893Y59329D01*
X150918Y59348D01*
X150962Y59379D01*
X151024Y59423D01*
X151099Y59466D01*
X151193Y59516D01*
X151305Y59573D01*
X151430Y59635D01*
X151580Y59691D01*
X151743Y59748D01*
X151924Y59798D01*
X152124Y59847D01*
X152343Y59885D01*
X152580Y59916D01*
X152830Y59935D01*
X153105Y59941D01*
X153242D01*
X153336Y59935D01*
D02*
G37*
G36*
X66108Y52824D02*
X64334D01*
X63134Y57298D01*
X61959Y52824D01*
X60166D01*
X57967Y59779D01*
X59754D01*
X61060Y55217D01*
X62259Y59779D01*
X64034D01*
X65196Y55217D01*
X66527Y59779D01*
X68339D01*
X66108Y52824D01*
D02*
G37*
G36*
X107979Y60803D02*
X103330D01*
Y58529D01*
X107342D01*
Y56905D01*
X103330D01*
Y52824D01*
X101393D01*
Y62428D01*
X107979D01*
Y60803D01*
D02*
G37*
G36*
X87547Y52824D02*
X85710D01*
Y59779D01*
X87547D01*
Y52824D01*
D02*
G37*
G36*
X71151D02*
X69314D01*
Y59779D01*
X71151D01*
Y52824D01*
D02*
G37*
G36*
X57635Y60803D02*
X54786D01*
Y52824D01*
X52849D01*
Y60803D01*
X50000D01*
Y62428D01*
X57635D01*
Y60803D01*
D02*
G37*
G36*
X159966Y59779D02*
X161222D01*
Y58310D01*
X159966D01*
Y55511D01*
Y55499D01*
Y55474D01*
Y55430D01*
Y55374D01*
Y55311D01*
Y55230D01*
X159972Y55149D01*
Y55068D01*
Y54893D01*
X159978Y54805D01*
X159984Y54730D01*
Y54655D01*
X159991Y54599D01*
X159997Y54549D01*
X160003Y54511D01*
Y54505D01*
X160009Y54486D01*
X160022Y54461D01*
X160041Y54430D01*
X160059Y54393D01*
X160091Y54355D01*
X160122Y54318D01*
X160166Y54280D01*
X160172Y54274D01*
X160191Y54268D01*
X160215Y54255D01*
X160253Y54236D01*
X160297Y54218D01*
X160353Y54205D01*
X160415Y54199D01*
X160478Y54193D01*
X160528D01*
X160584Y54205D01*
X160665Y54218D01*
X160772Y54236D01*
X160897Y54268D01*
X161047Y54311D01*
X161215Y54368D01*
X161378Y52937D01*
X161371D01*
X161346Y52924D01*
X161315Y52912D01*
X161265Y52893D01*
X161203Y52874D01*
X161134Y52849D01*
X161047Y52831D01*
X160953Y52806D01*
X160853Y52781D01*
X160740Y52756D01*
X160622Y52731D01*
X160490Y52712D01*
X160359Y52693D01*
X160215Y52681D01*
X160072Y52674D01*
X159922Y52668D01*
X159841D01*
X159797Y52674D01*
X159741D01*
X159684Y52681D01*
X159622Y52687D01*
X159485Y52706D01*
X159334Y52737D01*
X159178Y52774D01*
X159022Y52831D01*
X159016D01*
X159003Y52837D01*
X158985Y52849D01*
X158960Y52862D01*
X158885Y52899D01*
X158797Y52949D01*
X158703Y53012D01*
X158603Y53087D01*
X158516Y53168D01*
X158435Y53262D01*
Y53268D01*
X158428Y53274D01*
X158404Y53312D01*
X158372Y53368D01*
X158335Y53455D01*
X158291Y53555D01*
X158247Y53680D01*
X158210Y53818D01*
X158179Y53980D01*
Y53987D01*
Y53999D01*
X158172Y54018D01*
X158166Y54049D01*
Y54086D01*
X158160Y54137D01*
X158154Y54193D01*
X158147Y54268D01*
X158141Y54349D01*
X158135Y54443D01*
X158129Y54549D01*
Y54668D01*
X158122Y54799D01*
X158116Y54942D01*
Y55105D01*
Y55280D01*
Y58310D01*
X157273D01*
Y59779D01*
X158116D01*
Y61166D01*
X159966Y62241D01*
Y59779D01*
D02*
G37*
G36*
X145632Y59935D02*
X145675D01*
X145732Y59929D01*
X145788Y59922D01*
X145925Y59910D01*
X146082Y59885D01*
X146250Y59854D01*
X146444Y59810D01*
X146644Y59760D01*
X146850Y59691D01*
X147069Y59604D01*
X147281Y59504D01*
X147500Y59391D01*
X147712Y59248D01*
X147919Y59092D01*
X148112Y58910D01*
X148125Y58898D01*
X148156Y58860D01*
X148206Y58804D01*
X148269Y58729D01*
X148350Y58623D01*
X148431Y58504D01*
X148525Y58360D01*
X148618Y58204D01*
X148712Y58023D01*
X148806Y57829D01*
X148887Y57617D01*
X148968Y57386D01*
X149031Y57142D01*
X149081Y56886D01*
X149112Y56611D01*
X149125Y56323D01*
Y56317D01*
Y56305D01*
Y56286D01*
Y56255D01*
X149118Y56217D01*
Y56174D01*
X149112Y56117D01*
X149106Y56061D01*
X149093Y55924D01*
X149068Y55767D01*
X149037Y55592D01*
X149000Y55405D01*
X148943Y55199D01*
X148875Y54992D01*
X148793Y54774D01*
X148694Y54555D01*
X148581Y54330D01*
X148443Y54118D01*
X148287Y53905D01*
X148106Y53705D01*
X148094Y53693D01*
X148062Y53662D01*
X148000Y53612D01*
X147925Y53543D01*
X147825Y53468D01*
X147700Y53380D01*
X147563Y53287D01*
X147406Y53187D01*
X147225Y53093D01*
X147031Y52999D01*
X146819Y52912D01*
X146594Y52831D01*
X146350Y52762D01*
X146094Y52712D01*
X145826Y52681D01*
X145538Y52668D01*
X145444D01*
X145376Y52674D01*
X145288Y52681D01*
X145188Y52693D01*
X145076Y52706D01*
X144951Y52724D01*
X144819Y52743D01*
X144676Y52774D01*
X144520Y52806D01*
X144363Y52849D01*
X144207Y52899D01*
X144038Y52955D01*
X143876Y53024D01*
X143714Y53099D01*
X143701Y53106D01*
X143676Y53118D01*
X143632Y53143D01*
X143570Y53180D01*
X143501Y53224D01*
X143414Y53281D01*
X143320Y53343D01*
X143226Y53418D01*
X143120Y53505D01*
X143007Y53599D01*
X142901Y53699D01*
X142789Y53812D01*
X142683Y53937D01*
X142583Y54068D01*
X142483Y54212D01*
X142395Y54361D01*
X142389Y54374D01*
X142376Y54399D01*
X142351Y54449D01*
X142326Y54511D01*
X142289Y54593D01*
X142251Y54693D01*
X142214Y54805D01*
X142170Y54930D01*
X142126Y55074D01*
X142089Y55230D01*
X142051Y55392D01*
X142014Y55574D01*
X141989Y55767D01*
X141964Y55967D01*
X141952Y56180D01*
X141945Y56398D01*
Y56411D01*
Y56442D01*
X141952Y56492D01*
Y56555D01*
X141958Y56636D01*
X141970Y56736D01*
X141983Y56842D01*
X142001Y56967D01*
X142026Y57098D01*
X142058Y57236D01*
X142089Y57379D01*
X142133Y57536D01*
X142189Y57692D01*
X142245Y57848D01*
X142314Y58011D01*
X142395Y58173D01*
X142401Y58186D01*
X142414Y58210D01*
X142445Y58254D01*
X142476Y58317D01*
X142526Y58385D01*
X142583Y58467D01*
X142645Y58560D01*
X142726Y58660D01*
X142808Y58767D01*
X142907Y58873D01*
X143014Y58979D01*
X143126Y59092D01*
X143251Y59198D01*
X143382Y59298D01*
X143526Y59398D01*
X143676Y59485D01*
X143688Y59491D01*
X143714Y59504D01*
X143757Y59529D01*
X143820Y59554D01*
X143901Y59591D01*
X143995Y59629D01*
X144101Y59673D01*
X144220Y59716D01*
X144351Y59754D01*
X144495Y59798D01*
X144644Y59835D01*
X144807Y59872D01*
X144976Y59897D01*
X145157Y59922D01*
X145338Y59935D01*
X145526Y59941D01*
X145594D01*
X145632Y59935D01*
D02*
G37*
G36*
X83173Y59779D02*
X84429D01*
Y58310D01*
X83173D01*
Y55511D01*
Y55499D01*
Y55474D01*
Y55430D01*
Y55374D01*
Y55311D01*
Y55230D01*
X83179Y55149D01*
Y55068D01*
Y54893D01*
X83185Y54805D01*
X83191Y54730D01*
Y54655D01*
X83198Y54599D01*
X83204Y54549D01*
X83210Y54511D01*
Y54505D01*
X83216Y54486D01*
X83229Y54461D01*
X83248Y54430D01*
X83266Y54393D01*
X83298Y54355D01*
X83329Y54318D01*
X83373Y54280D01*
X83379Y54274D01*
X83398Y54268D01*
X83423Y54255D01*
X83460Y54236D01*
X83504Y54218D01*
X83560Y54205D01*
X83623Y54199D01*
X83685Y54193D01*
X83735D01*
X83791Y54205D01*
X83873Y54218D01*
X83979Y54236D01*
X84104Y54268D01*
X84254Y54311D01*
X84422Y54368D01*
X84585Y52937D01*
X84579D01*
X84554Y52924D01*
X84522Y52912D01*
X84472Y52893D01*
X84410Y52874D01*
X84341Y52849D01*
X84254Y52831D01*
X84160Y52806D01*
X84060Y52781D01*
X83948Y52756D01*
X83829Y52731D01*
X83698Y52712D01*
X83566Y52693D01*
X83423Y52681D01*
X83279Y52674D01*
X83129Y52668D01*
X83048D01*
X83004Y52674D01*
X82948D01*
X82892Y52681D01*
X82829Y52687D01*
X82692Y52706D01*
X82542Y52737D01*
X82386Y52774D01*
X82229Y52831D01*
X82223D01*
X82211Y52837D01*
X82192Y52849D01*
X82167Y52862D01*
X82092Y52899D01*
X82004Y52949D01*
X81911Y53012D01*
X81811Y53087D01*
X81723Y53168D01*
X81642Y53262D01*
Y53268D01*
X81636Y53274D01*
X81611Y53312D01*
X81579Y53368D01*
X81542Y53455D01*
X81498Y53555D01*
X81454Y53680D01*
X81417Y53818D01*
X81386Y53980D01*
Y53987D01*
Y53999D01*
X81379Y54018D01*
X81373Y54049D01*
Y54086D01*
X81367Y54137D01*
X81361Y54193D01*
X81355Y54268D01*
X81348Y54349D01*
X81342Y54443D01*
X81336Y54549D01*
Y54668D01*
X81329Y54799D01*
X81323Y54942D01*
Y55105D01*
Y55280D01*
Y58310D01*
X80480D01*
Y59779D01*
X81323D01*
Y61166D01*
X83173Y62241D01*
Y59779D01*
D02*
G37*
G36*
X92045Y59935D02*
X92083D01*
X92170Y59922D01*
X92283Y59904D01*
X92414Y59879D01*
X92552Y59847D01*
X92708Y59798D01*
X92877Y59741D01*
X93045Y59666D01*
X93226Y59573D01*
X93401Y59460D01*
X93583Y59329D01*
X93757Y59179D01*
X93845Y59098D01*
X93926Y59004D01*
X94008Y58910D01*
X94089Y58804D01*
Y59779D01*
X95813D01*
Y53537D01*
Y53530D01*
Y53524D01*
Y53505D01*
Y53480D01*
Y53418D01*
Y53337D01*
X95807Y53237D01*
X95801Y53118D01*
X95794Y52987D01*
X95788Y52849D01*
X95776Y52699D01*
X95763Y52549D01*
X95726Y52249D01*
X95701Y52099D01*
X95676Y51956D01*
X95645Y51825D01*
X95607Y51706D01*
Y51700D01*
X95601Y51681D01*
X95588Y51650D01*
X95570Y51606D01*
X95551Y51556D01*
X95526Y51493D01*
X95495Y51425D01*
X95463Y51356D01*
X95382Y51200D01*
X95282Y51044D01*
X95170Y50887D01*
X95038Y50744D01*
X95032Y50737D01*
X95020Y50731D01*
X95001Y50712D01*
X94970Y50687D01*
X94938Y50656D01*
X94895Y50625D01*
X94838Y50587D01*
X94782Y50544D01*
X94714Y50500D01*
X94639Y50456D01*
X94564Y50412D01*
X94476Y50369D01*
X94382Y50325D01*
X94282Y50281D01*
X94064Y50200D01*
X94058D01*
X94039Y50194D01*
X94001Y50181D01*
X93951Y50169D01*
X93895Y50156D01*
X93820Y50138D01*
X93739Y50119D01*
X93639Y50100D01*
X93533Y50081D01*
X93414Y50062D01*
X93289Y50044D01*
X93152Y50031D01*
X93008Y50019D01*
X92851Y50006D01*
X92689Y50000D01*
X92395D01*
X92345Y50006D01*
X92289D01*
X92227Y50012D01*
X92158D01*
X92083Y50019D01*
X91914Y50031D01*
X91733Y50050D01*
X91533Y50075D01*
X91327Y50106D01*
X91121Y50150D01*
X90908Y50200D01*
X90702Y50256D01*
X90502Y50325D01*
X90321Y50406D01*
X90146Y50500D01*
X89996Y50606D01*
X89990Y50612D01*
X89965Y50631D01*
X89927Y50669D01*
X89883Y50719D01*
X89827Y50775D01*
X89765Y50850D01*
X89696Y50931D01*
X89627Y51025D01*
X89559Y51131D01*
X89490Y51250D01*
X89427Y51375D01*
X89371Y51512D01*
X89327Y51656D01*
X89290Y51812D01*
X89265Y51975D01*
X89259Y52143D01*
Y52150D01*
Y52162D01*
Y52181D01*
Y52206D01*
Y52281D01*
X89265Y52368D01*
X91371Y52112D01*
Y52106D01*
Y52093D01*
X91377Y52074D01*
X91383Y52049D01*
X91396Y51987D01*
X91421Y51912D01*
X91452Y51825D01*
X91496Y51743D01*
X91546Y51668D01*
X91614Y51606D01*
X91621D01*
X91627Y51600D01*
X91646Y51587D01*
X91664Y51575D01*
X91696Y51562D01*
X91727Y51543D01*
X91771Y51525D01*
X91814Y51512D01*
X91870Y51493D01*
X91933Y51475D01*
X92002Y51456D01*
X92071Y51443D01*
X92152Y51431D01*
X92245Y51418D01*
X92339Y51412D01*
X92508D01*
X92558Y51418D01*
X92614D01*
X92683Y51425D01*
X92764Y51431D01*
X92845Y51437D01*
X93020Y51468D01*
X93201Y51506D01*
X93370Y51556D01*
X93451Y51593D01*
X93520Y51631D01*
X93533Y51637D01*
X93558Y51656D01*
X93601Y51693D01*
X93658Y51743D01*
X93720Y51806D01*
X93776Y51887D01*
X93839Y51981D01*
X93889Y52093D01*
X93895Y52106D01*
Y52118D01*
X93901Y52137D01*
X93907Y52168D01*
X93914Y52200D01*
X93920Y52237D01*
X93933Y52287D01*
X93939Y52337D01*
X93945Y52399D01*
X93951Y52468D01*
X93958Y52543D01*
X93964Y52631D01*
Y52718D01*
X93970Y52824D01*
Y52930D01*
Y53949D01*
X93958Y53937D01*
X93933Y53899D01*
X93889Y53843D01*
X93820Y53774D01*
X93739Y53687D01*
X93645Y53593D01*
X93533Y53493D01*
X93401Y53387D01*
X93258Y53280D01*
X93102Y53180D01*
X92927Y53087D01*
X92745Y52999D01*
X92545Y52930D01*
X92339Y52874D01*
X92121Y52837D01*
X92008Y52831D01*
X91889Y52824D01*
X91827D01*
X91796Y52831D01*
X91752D01*
X91658Y52843D01*
X91539Y52862D01*
X91402Y52887D01*
X91252Y52924D01*
X91083Y52974D01*
X90908Y53037D01*
X90727Y53112D01*
X90546Y53205D01*
X90358Y53324D01*
X90177Y53455D01*
X89996Y53618D01*
X89909Y53705D01*
X89827Y53799D01*
X89746Y53899D01*
X89665Y54005D01*
X89659Y54018D01*
X89640Y54049D01*
X89609Y54099D01*
X89565Y54174D01*
X89515Y54268D01*
X89465Y54374D01*
X89409Y54505D01*
X89346Y54649D01*
X89290Y54811D01*
X89228Y54986D01*
X89178Y55180D01*
X89128Y55386D01*
X89084Y55605D01*
X89052Y55842D01*
X89034Y56086D01*
X89028Y56342D01*
Y56348D01*
Y56361D01*
Y56386D01*
Y56417D01*
X89034Y56461D01*
Y56511D01*
Y56567D01*
X89040Y56630D01*
X89046Y56698D01*
X89052Y56773D01*
X89071Y56942D01*
X89096Y57130D01*
X89134Y57336D01*
X89178Y57542D01*
X89234Y57767D01*
X89302Y57986D01*
X89384Y58210D01*
X89477Y58429D01*
X89590Y58635D01*
X89715Y58835D01*
X89865Y59016D01*
X89877Y59029D01*
X89902Y59054D01*
X89952Y59104D01*
X90015Y59160D01*
X90096Y59229D01*
X90196Y59310D01*
X90315Y59391D01*
X90446Y59479D01*
X90590Y59566D01*
X90746Y59648D01*
X90921Y59729D01*
X91102Y59798D01*
X91302Y59854D01*
X91508Y59904D01*
X91727Y59929D01*
X91958Y59941D01*
X92014D01*
X92045Y59935D01*
D02*
G37*
%LPC*%
G36*
X72276Y43279D02*
X72219D01*
X72157Y43267D01*
X72076Y43254D01*
X71982Y43229D01*
X71882Y43192D01*
X71776Y43135D01*
X71676Y43067D01*
X71663Y43054D01*
X71632Y43023D01*
X71588Y42973D01*
X71557Y42936D01*
X71532Y42892D01*
X71494Y42842D01*
X71463Y42786D01*
X71432Y42723D01*
X71395Y42654D01*
X71363Y42579D01*
X71332Y42498D01*
X71301Y42404D01*
X71270Y42304D01*
Y42298D01*
X71263Y42273D01*
X71251Y42229D01*
X71238Y42167D01*
X71226Y42086D01*
X71213Y41986D01*
X71195Y41873D01*
X71176Y41736D01*
X71157Y41580D01*
X71145Y41405D01*
X71126Y41205D01*
X71113Y40986D01*
X71101Y40749D01*
X71088Y40486D01*
X71082Y40205D01*
Y39899D01*
Y39892D01*
Y39880D01*
Y39855D01*
Y39824D01*
Y39786D01*
Y39736D01*
Y39686D01*
Y39624D01*
X71088Y39486D01*
Y39330D01*
X71095Y39155D01*
X71101Y38974D01*
X71113Y38780D01*
X71126Y38587D01*
X71138Y38393D01*
X71151Y38205D01*
X71176Y38024D01*
X71195Y37856D01*
X71220Y37706D01*
X71251Y37574D01*
Y37568D01*
X71257Y37549D01*
X71270Y37512D01*
X71282Y37474D01*
X71301Y37424D01*
X71319Y37362D01*
X71370Y37231D01*
X71432Y37093D01*
X71507Y36950D01*
X71544Y36887D01*
X71588Y36831D01*
X71632Y36775D01*
X71682Y36731D01*
X71694Y36725D01*
X71726Y36700D01*
X71782Y36668D01*
X71851Y36631D01*
X71938Y36587D01*
X72038Y36556D01*
X72151Y36531D01*
X72276Y36525D01*
X72307D01*
X72332Y36531D01*
X72394Y36537D01*
X72476Y36550D01*
X72569Y36575D01*
X72663Y36612D01*
X72769Y36668D01*
X72869Y36737D01*
X72882Y36750D01*
X72913Y36781D01*
X72963Y36831D01*
X72988Y36868D01*
X73019Y36912D01*
X73050Y36962D01*
X73082Y37018D01*
X73119Y37081D01*
X73150Y37150D01*
X73182Y37225D01*
X73219Y37312D01*
X73250Y37399D01*
X73275Y37499D01*
Y37506D01*
X73281Y37531D01*
X73294Y37574D01*
X73306Y37637D01*
X73319Y37718D01*
X73338Y37812D01*
X73356Y37931D01*
X73375Y38062D01*
X73388Y38218D01*
X73407Y38393D01*
X73425Y38593D01*
X73438Y38812D01*
X73450Y39049D01*
X73463Y39311D01*
X73469Y39593D01*
Y39899D01*
Y39905D01*
Y39918D01*
Y39943D01*
Y39974D01*
Y40011D01*
Y40061D01*
Y40111D01*
Y40174D01*
X73463Y40311D01*
Y40467D01*
X73457Y40636D01*
X73450Y40823D01*
X73438Y41011D01*
X73425Y41205D01*
X73413Y41398D01*
X73394Y41586D01*
X73375Y41767D01*
X73350Y41936D01*
X73325Y42086D01*
X73294Y42217D01*
Y42223D01*
X73288Y42242D01*
X73275Y42279D01*
X73263Y42323D01*
X73244Y42373D01*
X73225Y42429D01*
X73175Y42561D01*
X73113Y42704D01*
X73044Y42842D01*
X73000Y42910D01*
X72957Y42967D01*
X72913Y43023D01*
X72863Y43067D01*
X72850Y43073D01*
X72819Y43098D01*
X72763Y43135D01*
X72694Y43173D01*
X72607Y43210D01*
X72507Y43248D01*
X72394Y43273D01*
X72276Y43279D01*
D02*
G37*
G36*
X145532Y58435D02*
X145500D01*
X145463Y58429D01*
X145413D01*
X145351Y58417D01*
X145276Y58404D01*
X145201Y58392D01*
X145113Y58367D01*
X145019Y58335D01*
X144919Y58304D01*
X144819Y58254D01*
X144719Y58204D01*
X144613Y58142D01*
X144513Y58067D01*
X144413Y57986D01*
X144320Y57885D01*
X144313Y57879D01*
X144301Y57860D01*
X144276Y57829D01*
X144245Y57786D01*
X144207Y57729D01*
X144163Y57654D01*
X144120Y57573D01*
X144076Y57479D01*
X144032Y57373D01*
X143988Y57254D01*
X143945Y57123D01*
X143907Y56986D01*
X143876Y56830D01*
X143851Y56667D01*
X143839Y56486D01*
X143832Y56298D01*
Y56286D01*
Y56255D01*
X143839Y56199D01*
Y56130D01*
X143845Y56042D01*
X143857Y55942D01*
X143876Y55836D01*
X143895Y55717D01*
X143920Y55586D01*
X143951Y55461D01*
X143988Y55330D01*
X144038Y55199D01*
X144095Y55068D01*
X144157Y54942D01*
X144232Y54824D01*
X144320Y54718D01*
X144326Y54711D01*
X144345Y54693D01*
X144370Y54668D01*
X144407Y54630D01*
X144457Y54593D01*
X144513Y54543D01*
X144582Y54493D01*
X144657Y54443D01*
X144738Y54393D01*
X144832Y54343D01*
X144932Y54293D01*
X145038Y54255D01*
X145151Y54218D01*
X145276Y54193D01*
X145401Y54174D01*
X145532Y54168D01*
X145563D01*
X145601Y54174D01*
X145651D01*
X145713Y54187D01*
X145788Y54199D01*
X145869Y54212D01*
X145957Y54236D01*
X146050Y54268D01*
X146144Y54305D01*
X146244Y54349D01*
X146350Y54399D01*
X146450Y54461D01*
X146550Y54536D01*
X146650Y54624D01*
X146744Y54718D01*
X146750Y54724D01*
X146763Y54743D01*
X146788Y54774D01*
X146819Y54818D01*
X146856Y54880D01*
X146900Y54949D01*
X146944Y55030D01*
X146988Y55124D01*
X147031Y55230D01*
X147075Y55349D01*
X147119Y55480D01*
X147156Y55624D01*
X147188Y55780D01*
X147213Y55949D01*
X147225Y56123D01*
X147231Y56317D01*
Y56330D01*
Y56361D01*
Y56417D01*
X147225Y56486D01*
X147219Y56573D01*
X147206Y56667D01*
X147188Y56780D01*
X147169Y56898D01*
X147144Y57017D01*
X147113Y57148D01*
X147075Y57279D01*
X147025Y57411D01*
X146969Y57536D01*
X146906Y57661D01*
X146832Y57779D01*
X146744Y57885D01*
X146738Y57892D01*
X146719Y57910D01*
X146694Y57936D01*
X146657Y57973D01*
X146607Y58011D01*
X146550Y58060D01*
X146488Y58110D01*
X146413Y58161D01*
X146325Y58210D01*
X146232Y58260D01*
X146132Y58310D01*
X146025Y58348D01*
X145913Y58385D01*
X145794Y58410D01*
X145663Y58429D01*
X145532Y58435D01*
D02*
G37*
G36*
X92433Y58529D02*
X92402D01*
X92370Y58523D01*
X92320D01*
X92264Y58510D01*
X92202Y58504D01*
X92127Y58485D01*
X92045Y58467D01*
X91964Y58435D01*
X91877Y58404D01*
X91783Y58360D01*
X91689Y58310D01*
X91602Y58254D01*
X91508Y58179D01*
X91421Y58104D01*
X91339Y58011D01*
X91333Y58004D01*
X91321Y57986D01*
X91302Y57954D01*
X91271Y57917D01*
X91239Y57860D01*
X91208Y57792D01*
X91165Y57717D01*
X91127Y57623D01*
X91089Y57517D01*
X91052Y57404D01*
X91014Y57273D01*
X90983Y57136D01*
X90952Y56979D01*
X90933Y56817D01*
X90921Y56642D01*
X90914Y56448D01*
Y56436D01*
Y56398D01*
Y56342D01*
X90921Y56267D01*
X90927Y56173D01*
X90940Y56067D01*
X90952Y55955D01*
X90971Y55830D01*
X91021Y55561D01*
X91052Y55430D01*
X91096Y55292D01*
X91146Y55161D01*
X91202Y55043D01*
X91264Y54924D01*
X91339Y54824D01*
X91346Y54818D01*
X91358Y54805D01*
X91383Y54774D01*
X91414Y54743D01*
X91458Y54705D01*
X91508Y54661D01*
X91571Y54618D01*
X91633Y54568D01*
X91708Y54518D01*
X91789Y54474D01*
X91877Y54430D01*
X91971Y54393D01*
X92071Y54361D01*
X92177Y54336D01*
X92283Y54318D01*
X92402Y54311D01*
X92433D01*
X92464Y54318D01*
X92514D01*
X92570Y54330D01*
X92639Y54336D01*
X92714Y54355D01*
X92795Y54380D01*
X92883Y54405D01*
X92977Y54443D01*
X93070Y54480D01*
X93164Y54530D01*
X93264Y54593D01*
X93358Y54661D01*
X93451Y54743D01*
X93539Y54836D01*
X93545Y54843D01*
X93558Y54861D01*
X93583Y54893D01*
X93614Y54936D01*
X93645Y54992D01*
X93689Y55055D01*
X93733Y55136D01*
X93776Y55230D01*
X93820Y55330D01*
X93857Y55449D01*
X93901Y55574D01*
X93933Y55717D01*
X93964Y55867D01*
X93989Y56036D01*
X94001Y56211D01*
X94008Y56398D01*
Y56405D01*
Y56411D01*
Y56448D01*
Y56505D01*
X94001Y56573D01*
X93995Y56667D01*
X93982Y56767D01*
X93970Y56880D01*
X93951Y57004D01*
X93926Y57136D01*
X93895Y57267D01*
X93864Y57398D01*
X93820Y57529D01*
X93764Y57661D01*
X93708Y57786D01*
X93639Y57898D01*
X93558Y58004D01*
X93551Y58011D01*
X93539Y58029D01*
X93514Y58054D01*
X93476Y58085D01*
X93433Y58129D01*
X93383Y58173D01*
X93320Y58217D01*
X93251Y58267D01*
X93176Y58317D01*
X93089Y58360D01*
X92995Y58410D01*
X92895Y58448D01*
X92789Y58479D01*
X92677Y58504D01*
X92558Y58523D01*
X92433Y58529D01*
D02*
G37*
%LPD*%
M02*
