G04*
G04 #@! TF.GenerationSoftware,Altium Limited,Altium Designer,25.2.1 (25)*
G04*
G04 Layer_Color=16711935*
%FSLAX44Y44*%
%MOMM*%
G71*
G04*
G04 #@! TF.SameCoordinates,354CD0E8-A94C-4C90-BA2C-1FD22ABA9F20*
G04*
G04*
G04 #@! TF.FilePolarity,Positive*
G04*
G01*
G75*
G36*
X30000D02*
X10000Y0D01*
X9015Y0D01*
X7083Y384D01*
X5263Y1138D01*
X3625Y2233D01*
X2233Y3625D01*
X1138Y5263D01*
X384Y7083D01*
X0Y9015D01*
Y10000D01*
X0Y10000D01*
X0Y70000D01*
Y70985D01*
X384Y72917D01*
X1138Y74737D01*
X2233Y76375D01*
X3625Y77767D01*
X5263Y78862D01*
X7083Y79616D01*
X9015Y80000D01*
X10000D01*
X10000Y80000D01*
X30000D01*
Y0D01*
D02*
G37*
G36*
X290000Y80000D02*
X290985Y80000D01*
X292917Y79616D01*
X294737Y78862D01*
X296375Y77768D01*
X297768Y76375D01*
X298862Y74737D01*
X299616Y72917D01*
X300000Y70985D01*
Y70000D01*
Y70000D01*
X300000Y10000D01*
Y9015D01*
X299616Y7083D01*
X298862Y5263D01*
X297768Y3625D01*
X296375Y2233D01*
X294737Y1138D01*
X292917Y384D01*
X290985Y0D01*
X290000D01*
X290000Y0D01*
X270000D01*
Y80000D01*
X290000Y80000D01*
D02*
G37*
M02*
