G04*
G04 #@! TF.GenerationSoftware,Altium Limited,Altium Designer,25.2.1 (25)*
G04*
G04 Layer_Physical_Order=2*
G04 Layer_Color=16711680*
%FSLAX44Y44*%
%MOMM*%
G71*
G04*
G04 #@! TF.SameCoordinates,354CD0E8-A94C-4C90-BA2C-1FD22ABA9F20*
G04*
G04*
G04 #@! TF.FilePolarity,Positive*
G04*
G01*
G75*
%ADD12C,0.2000*%
%ADD13C,0.4000*%
D12*
X12500Y48000D02*
X287500Y48000D01*
X12500Y16000D02*
X287500D01*
X16000Y20000D02*
X284000D01*
X12500Y24000D02*
X287500D01*
X16000Y28000D02*
X284000D01*
X12500Y32000D02*
X287500D01*
X16000Y36000D02*
X284000D01*
X12500Y40000D02*
X287500D01*
X16000Y44000D02*
X284000D01*
X12500Y64000D02*
X287500D01*
X16000Y60000D02*
X284000D01*
X12500Y56000D02*
X287500D01*
X15777Y52000D02*
X284000D01*
D13*
X15777D02*
D03*
X287500Y16000D02*
D03*
X284000Y20000D02*
D03*
X287500Y24000D02*
D03*
X284000Y28000D02*
D03*
X287500Y32000D02*
D03*
X284000Y36000D02*
D03*
X287500Y40000D02*
D03*
X284000Y44000D02*
D03*
X287500Y48000D02*
D03*
X284000Y52000D02*
D03*
X287500Y56000D02*
D03*
X12500Y16000D02*
D03*
X16000Y20000D02*
D03*
X12500Y24000D02*
D03*
X16000Y28000D02*
D03*
X12500Y32000D02*
D03*
X16000Y44000D02*
D03*
X12500Y48000D02*
D03*
Y56000D02*
D03*
Y40000D02*
D03*
X16000Y36000D02*
D03*
X287500Y64000D02*
D03*
X12500D02*
D03*
X284000Y60000D02*
D03*
X16000D02*
D03*
M02*
