G04*
G04 #@! TF.GenerationSoftware,Altium Limited,Altium Designer,25.8.1 (18)*
G04*
G04 Layer_Physical_Order=1*
G04 Layer_Color=255*
%FSLAX44Y44*%
%MOMM*%
G71*
G04*
G04 #@! TF.SameCoordinates,AE29A8EA-38D1-4C56-B93E-DA9E4F67AAC9*
G04*
G04*
G04 #@! TF.FilePolarity,Positive*
G04*
G01*
G75*
%ADD10R,0.4400X0.3500*%
%ADD11R,0.6600X0.2200*%
%ADD14C,0.2000*%
%ADD15C,0.4000*%
D10*
X285000Y6500D02*
D03*
Y73500D02*
D03*
X15000D02*
D03*
Y6500D02*
D03*
D11*
X293550Y64000D02*
D03*
Y60000D02*
D03*
Y56000D02*
D03*
Y52000D02*
D03*
Y48000D02*
D03*
Y44000D02*
D03*
Y40000D02*
D03*
Y36000D02*
D03*
Y32000D02*
D03*
Y28000D02*
D03*
Y24000D02*
D03*
Y20000D02*
D03*
Y16000D02*
D03*
X276450Y20000D02*
D03*
Y24000D02*
D03*
Y28000D02*
D03*
Y32000D02*
D03*
Y36000D02*
D03*
Y16000D02*
D03*
Y48000D02*
D03*
Y52000D02*
D03*
Y56000D02*
D03*
Y60000D02*
D03*
Y64000D02*
D03*
Y40000D02*
D03*
Y44000D02*
D03*
X6450D02*
D03*
Y40000D02*
D03*
Y64000D02*
D03*
Y60000D02*
D03*
Y56000D02*
D03*
Y52000D02*
D03*
Y48000D02*
D03*
Y16000D02*
D03*
Y36000D02*
D03*
Y32000D02*
D03*
Y28000D02*
D03*
Y24000D02*
D03*
Y20000D02*
D03*
X23550Y16000D02*
D03*
Y20000D02*
D03*
Y24000D02*
D03*
Y28000D02*
D03*
Y32000D02*
D03*
Y36000D02*
D03*
Y40000D02*
D03*
Y44000D02*
D03*
Y48000D02*
D03*
Y52000D02*
D03*
Y56000D02*
D03*
Y60000D02*
D03*
Y64000D02*
D03*
D14*
Y16000D02*
X276450D01*
X23550Y24000D02*
X276450D01*
X23550Y28000D02*
X276450D01*
X23550Y32000D02*
X276450D01*
X23550Y36000D02*
X276450D01*
X23550Y40000D02*
X276450D01*
X23550Y44000D02*
X276450D01*
X23550Y48000D02*
X276450D01*
X23550Y52000D02*
X276450D01*
X23550Y60000D02*
X276450D01*
X23550Y64000D02*
X276450D01*
X287500Y16000D02*
X293550D01*
X284000Y20000D02*
X293550D01*
X284000Y28000D02*
X293550D01*
X284000Y36000D02*
X293550D01*
X284000Y44000D02*
X293550D01*
X284000Y52000D02*
X293550D01*
X287500Y24000D02*
X293550D01*
X287500Y32000D02*
X293550D01*
X287500Y40000D02*
X293550D01*
X287500Y48000D02*
X293550D01*
X287500Y56000D02*
X293550D01*
X6450Y16000D02*
X12500D01*
X6450Y24000D02*
X12500D01*
X6450Y32000D02*
X12500D01*
X6450Y48000D02*
X12500D01*
X6450Y56000D02*
X12500D01*
X6450Y20000D02*
X16000D01*
X6450Y28000D02*
X16000D01*
X6450Y44000D02*
X16000D01*
X6450Y40000D02*
X12500D01*
X6450Y36000D02*
X16000D01*
X23550Y20000D02*
X276450D01*
X23550Y56000D02*
X276450D01*
X287500Y64000D02*
X293550D01*
X6450D02*
X12500D01*
X284000Y60000D02*
X284000Y60000D01*
X6450D02*
X16000D01*
X284000D02*
X293550D01*
X6450Y52000D02*
X15777D01*
D15*
D03*
X287500Y16000D02*
D03*
X284000Y20000D02*
D03*
X287500Y24000D02*
D03*
X284000Y28000D02*
D03*
X287500Y32000D02*
D03*
X284000Y36000D02*
D03*
X287500Y40000D02*
D03*
X284000Y44000D02*
D03*
X287500Y48000D02*
D03*
X284000Y52000D02*
D03*
X287500Y56000D02*
D03*
X12500Y16000D02*
D03*
X16000Y20000D02*
D03*
X12500Y24000D02*
D03*
X16000Y28000D02*
D03*
X12500Y32000D02*
D03*
X16000Y44000D02*
D03*
X12500Y48000D02*
D03*
Y56000D02*
D03*
Y40000D02*
D03*
X16000Y36000D02*
D03*
X287500Y64000D02*
D03*
X12500D02*
D03*
X284000Y60000D02*
D03*
X16000D02*
D03*
M02*
