M48
;Layer_Color=9474304
;FILE_FORMAT=2:5
INCH,LZ
;TYPE=PLATED
T01F00S00C0.00787
%
T01
X0004921Y0006299
X0006299Y0007874
X0004921Y0009449
X0006299Y0011024
X0004921Y0012598
X0006299Y0014173
X0004921Y0015748
X0006299Y0017323
X0004921Y0018898
X0006211Y0020472
X0004921Y0022047
X0006299Y0023622
X0004921Y0025197
X0113189
X0111811Y0023622
X0113189Y0022047
X0111811Y0020472
X0113189Y0018898
X0111811Y0017323
X0113189Y0015748
X0111811Y0014173
X0113189Y0012598
X0111811Y0011024
X0113189Y0009449
X0111811Y0007874
X0113189Y0006299
M30
